<svg>
<symbol id="faq-plus" fill="none" xmlns="http://www.w3.org/2000/svg">
<path fill-rule="evenodd" clip-rule="evenodd" d="M61 38C61 37.4477 60.5523 37 60 37C59.4477 37 59 37.4477 59 38V55H42C41.4477 55 41 55.4477 41 56C41 56.5523 41.4477 57 42 57H59V74C59 74.5523 59.4477 75 60 75C60.5523 75 61 74.5523 61 74V57H78C78.5523 57 79 56.5523 79 56C79 55.4477 78.5523 55 78 55H61V38Z" fill="currentColor"/>
<defs>
<filter id="filter0_d_10172_323" x="0" y="0" width="120" height="120" filterUnits="userSpaceOnUse" color-interpolation-filters="sRGB">
<feFlood flood-opacity="0" result="BackgroundImageFix"/>
<feColorMatrix in="SourceAlpha" type="matrix" values="0 0 0 0 0 0 0 0 0 0 0 0 0 0 0 0 0 0 127 0" result="hardAlpha"/>
<feOffset dy="4"/>
<feGaussianBlur stdDeviation="20.5"/>
<feComposite in2="hardAlpha" operator="out"/>
<feColorMatrix type="matrix" values="0 0 0 0 0 0 0 0 0 0 0 0 0 0 0 0 0 0 0.05 0"/>
<feBlend mode="normal" in2="BackgroundImageFix" result="effect1_dropShadow_10172_323"/>
<feBlend mode="normal" in="SourceGraphic" in2="effect1_dropShadow_10172_323" result="shape"/>
</filter>
</defs>
</symbol>
</svg>
